<svg xmlns="http://www.w3.org/2000/svg" width="1200" height="1500" viewBox="0 0 1200 1500">
  <rect width="1200" height="1500" fill="#e9dec7"/>
  <rect x="38" y="38" width="1124" height="1424" rx="28" fill="#fffaf0" stroke="#56614f" stroke-width="5"/>
  <text x="600" y="140" text-anchor="middle" font-family="Yu Gothic, Meiryo, Arial, sans-serif" font-size="70" font-weight="700" fill="#365345">Queen of the Andes</text>
  <text x="600" y="215" text-anchor="middle" font-family="Georgia, serif" font-size="40" font-style="italic" fill="#5b4a3d">Puya raimondii</text>
  <ellipse cx="600" cy="660" rx="480" ry="378" fill="#dce6df" stroke="#65756c" stroke-width="4"/>
  <path d="M120 850 L330 610 L500 790 L700 560 L1080 850 V1010 H120 Z" fill="#c99767"/>
  <path d="M120 900 L360 705 L510 850 L740 670 L1080 910 V1010 H120 Z" fill="#e6bf82"/>
  <line x1="600" y1="890" x2="885.0" y2="890.0" stroke="#71826f" stroke-width="18" stroke-linecap="round"/><line x1="600" y1="890" x2="844.5" y2="912.9" stroke="#71826f" stroke-width="18" stroke-linecap="round"/><line x1="600" y1="890" x2="860.4" y2="941.0" stroke="#71826f" stroke-width="18" stroke-linecap="round"/><line x1="600" y1="890" x2="802.3" y2="954.7" stroke="#71826f" stroke-width="18" stroke-linecap="round"/><line x1="600" y1="890" x2="790.7" y2="983.2" stroke="#71826f" stroke-width="18" stroke-linecap="round"/><line x1="600" y1="890" x2="725.0" y2="985.3" stroke="#71826f" stroke-width="18" stroke-linecap="round"/><line x1="600" y1="890" x2="688.1" y2="1009.3" stroke="#71826f" stroke-width="18" stroke-linecap="round"/><line x1="600" y1="890" x2="626.1" y2="999.4" stroke="#71826f" stroke-width="18" stroke-linecap="round"/><line x1="600" y1="890" x2="570.2" y2="1014.7" stroke="#71826f" stroke-width="18" stroke-linecap="round"/><line x1="600" y1="890" x2="522.7" y2="994.6" stroke="#71826f" stroke-width="18" stroke-linecap="round"/><line x1="600" y1="890" x2="457.5" y2="998.6" stroke="#71826f" stroke-width="18" stroke-linecap="round"/><line x1="600" y1="890" x2="432.7" y2="971.7" stroke="#71826f" stroke-width="18" stroke-linecap="round"/><line x1="600" y1="890" x2="369.4" y2="963.7" stroke="#71826f" stroke-width="18" stroke-linecap="round"/><line x1="600" y1="890" x2="371.6" y2="934.7" stroke="#71826f" stroke-width="18" stroke-linecap="round"/><line x1="600" y1="890" x2="321.2" y2="916.1" stroke="#71826f" stroke-width="18" stroke-linecap="round"/><line x1="600" y1="890" x2="350.0" y2="890.0" stroke="#71826f" stroke-width="18" stroke-linecap="round"/><line x1="600" y1="890" x2="321.2" y2="863.9" stroke="#71826f" stroke-width="18" stroke-linecap="round"/><line x1="600" y1="890" x2="371.6" y2="845.3" stroke="#71826f" stroke-width="18" stroke-linecap="round"/><line x1="600" y1="890" x2="369.4" y2="816.3" stroke="#71826f" stroke-width="18" stroke-linecap="round"/><line x1="600" y1="890" x2="432.7" y2="808.3" stroke="#71826f" stroke-width="18" stroke-linecap="round"/><line x1="600" y1="890" x2="457.5" y2="781.4" stroke="#71826f" stroke-width="18" stroke-linecap="round"/><line x1="600" y1="890" x2="522.7" y2="785.4" stroke="#71826f" stroke-width="18" stroke-linecap="round"/><line x1="600" y1="890" x2="570.2" y2="765.3" stroke="#71826f" stroke-width="18" stroke-linecap="round"/><line x1="600" y1="890" x2="626.1" y2="780.6" stroke="#71826f" stroke-width="18" stroke-linecap="round"/><line x1="600" y1="890" x2="688.1" y2="770.7" stroke="#71826f" stroke-width="18" stroke-linecap="round"/><line x1="600" y1="890" x2="725.0" y2="794.7" stroke="#71826f" stroke-width="18" stroke-linecap="round"/><line x1="600" y1="890" x2="790.7" y2="796.8" stroke="#71826f" stroke-width="18" stroke-linecap="round"/><line x1="600" y1="890" x2="802.3" y2="825.3" stroke="#71826f" stroke-width="18" stroke-linecap="round"/><line x1="600" y1="890" x2="860.4" y2="839.0" stroke="#71826f" stroke-width="18" stroke-linecap="round"/><line x1="600" y1="890" x2="844.5" y2="867.1" stroke="#71826f" stroke-width="18" stroke-linecap="round"/>
  <line x1="600" y1="895" x2="600" y2="380" stroke="#647459" stroke-width="42" stroke-linecap="round"/>
  <ellipse cx="540" cy="426" rx="13" ry="13" fill="#e9ead0" stroke="#68725d" stroke-width="2"/><ellipse cx="660" cy="426" rx="13" ry="13" fill="#e9ead0" stroke="#68725d" stroke-width="2"/><ellipse cx="538" cy="460" rx="13" ry="13" fill="#e9ead0" stroke="#68725d" stroke-width="2"/><ellipse cx="662" cy="460" rx="13" ry="13" fill="#e9ead0" stroke="#68725d" stroke-width="2"/><ellipse cx="536" cy="494" rx="13" ry="13" fill="#e9ead0" stroke="#68725d" stroke-width="2"/><ellipse cx="664" cy="494" rx="13" ry="13" fill="#e9ead0" stroke="#68725d" stroke-width="2"/><ellipse cx="534" cy="528" rx="13" ry="13" fill="#e9ead0" stroke="#68725d" stroke-width="2"/><ellipse cx="666" cy="528" rx="13" ry="13" fill="#e9ead0" stroke="#68725d" stroke-width="2"/><ellipse cx="532" cy="562" rx="13" ry="13" fill="#e9ead0" stroke="#68725d" stroke-width="2"/><ellipse cx="668" cy="562" rx="13" ry="13" fill="#e9ead0" stroke="#68725d" stroke-width="2"/><ellipse cx="530" cy="596" rx="13" ry="13" fill="#e9ead0" stroke="#68725d" stroke-width="2"/><ellipse cx="670" cy="596" rx="13" ry="13" fill="#e9ead0" stroke="#68725d" stroke-width="2"/><ellipse cx="527" cy="630" rx="13" ry="13" fill="#e9ead0" stroke="#68725d" stroke-width="2"/><ellipse cx="673" cy="630" rx="13" ry="13" fill="#e9ead0" stroke="#68725d" stroke-width="2"/><ellipse cx="525" cy="664" rx="13" ry="13" fill="#e9ead0" stroke="#68725d" stroke-width="2"/><ellipse cx="675" cy="664" rx="13" ry="13" fill="#e9ead0" stroke="#68725d" stroke-width="2"/><ellipse cx="523" cy="698" rx="13" ry="13" fill="#e9ead0" stroke="#68725d" stroke-width="2"/><ellipse cx="677" cy="698" rx="13" ry="13" fill="#e9ead0" stroke="#68725d" stroke-width="2"/><ellipse cx="521" cy="732" rx="13" ry="13" fill="#e9ead0" stroke="#68725d" stroke-width="2"/><ellipse cx="679" cy="732" rx="13" ry="13" fill="#e9ead0" stroke="#68725d" stroke-width="2"/><ellipse cx="519" cy="766" rx="13" ry="13" fill="#e9ead0" stroke="#68725d" stroke-width="2"/><ellipse cx="681" cy="766" rx="13" ry="13" fill="#e9ead0" stroke="#68725d" stroke-width="2"/>
  <ellipse cx="600" cy="374" rx="20" ry="26" fill="#dfe5c5" stroke="#68725d" stroke-width="2"/>
  <rect x="70" y="1080" width="340" height="165" rx="18" fill="#fff7e7" stroke="#69735d" stroke-width="4"/><text x="240" y="1162" text-anchor="middle" font-family="Yu Gothic, Meiryo, Arial, sans-serif" font-size="31" font-weight="700" fill="#334136"><tspan x="240" y="1162.0">Rocky high Andes</tspan></text><rect x="430" y="1080" width="340" height="165" rx="18" fill="#fff7e7" stroke="#69735d" stroke-width="4"/><text x="600" y="1162" text-anchor="middle" font-family="Yu Gothic, Meiryo, Arial, sans-serif" font-size="31" font-weight="700" fill="#334136"><tspan x="600" y="1141.0">A giant rosette</tspan><tspan x="600" y="1183.0">of spiny leaves</tspan></text><rect x="790" y="1080" width="340" height="165" rx="18" fill="#fff7e7" stroke="#69735d" stroke-width="4"/><text x="960" y="1162" text-anchor="middle" font-family="Yu Gothic, Meiryo, Arial, sans-serif" font-size="31" font-weight="700" fill="#334136"><tspan x="960" y="1141.0">One flowering,</tspan><tspan x="960" y="1183.0">then the parent dies</tspan></text>
  <rect x="140" y="1325" width="920" height="87" rx="17" fill="#d8dfcb"/>
  <text x="600" y="1380" text-anchor="middle" font-family="Yu Gothic, Meiryo, Arial, sans-serif" font-size="34" font-weight="700" fill="#334a3d">IUCN Red List 2009: Endangered (EN)</text>
</svg>
