<svg xmlns="http://www.w3.org/2000/svg" width="1200" height="1500" viewBox="0 0 1200 1500" role="img" aria-labelledby="title desc">
  <title id="title">Welwitschia infographic</title>
  <desc id="desc">A text-safe English educational poster about Welwitschia mirabilis.</desc>
  <rect width="1200" height="1500" fill="#f7e6c6"/>
  <rect x="38" y="38" width="1124" height="1424" rx="30" fill="#fff4d8" stroke="#654f34" stroke-width="5"/>
  <path d="M70 420 C220 330 350 360 510 405 C690 455 850 350 1130 400" fill="none" stroke="#b9d8dc" stroke-width="45" opacity=".75"/>
  <path d="M55 830 C230 745 465 755 640 825 C815 895 990 850 1145 790" fill="none" stroke="#d8b56f" stroke-width="90" opacity=".35"/>
  <text x="600" y="150" text-anchor="middle" font-family="Georgia, serif" font-size="98" font-weight="700" fill="#245e43">Welwitschia</text>
  <text x="600" y="218" text-anchor="middle" font-family="Georgia, serif" font-size="44" font-style="italic" fill="#473321">Welwitschia mirabilis</text>
  <g transform="translate(600 775)">
    <ellipse cx="0" cy="165" rx="150" ry="58" fill="#8c7048" opacity=".25"/>
    <path d="M-76 15 C-210 -25 -390 10 -505 130 C-410 125 -310 155 -235 230 C-170 165 -112 95 -55 54" fill="#6f9b4c" stroke="#355f30" stroke-width="8"/>
    <path d="M76 15 C210 -25 390 10 505 130 C410 125 310 155 235 230 C170 165 112 95 55 54" fill="#6f9b4c" stroke="#355f30" stroke-width="8"/>
    <path d="M-505 130 C-370 205 -255 230 -120 250" fill="none" stroke="#3f6c37" stroke-width="12"/>
    <path d="M505 130 C370 205 255 230 120 250" fill="none" stroke="#3f6c37" stroke-width="12"/>
    <path d="M-70 0 C-105 85 -98 170 -48 215 C-10 250 44 248 76 207 C120 150 103 72 70 0 Z" fill="#6b533e" stroke="#382a20" stroke-width="7"/>
    <path d="M-96 52 C-35 33 33 35 95 55" fill="none" stroke="#3b2a20" stroke-width="5"/>
    <g stroke="#4b3b2b" stroke-width="5">
      <path d="M-48 10 C-58 -52 -82 -95 -105 -132" fill="none"/>
      <path d="M-12 2 C-20 -58 -24 -100 -35 -145" fill="none"/>
      <path d="M36 6 C45 -55 72 -98 94 -132" fill="none"/>
    </g>
    <g>
      <ellipse cx="-112" cy="-145" rx="25" ry="44" fill="#b96b4a" stroke="#59402c" stroke-width="4"/>
      <ellipse cx="-38" cy="-157" rx="24" ry="42" fill="#cc7652" stroke="#59402c" stroke-width="4"/>
      <ellipse cx="98" cy="-145" rx="25" ry="44" fill="#347d6d" stroke="#29483f" stroke-width="4"/>
      <ellipse cx="42" cy="-162" rx="24" ry="43" fill="#4f9985" stroke="#29483f" stroke-width="4"/>
    </g>
  </g>
  <g font-family="Segoe UI, Arial, sans-serif" font-size="38" fill="#263c2f">
    <rect x="105" y="330" width="350" height="112" rx="12" fill="#fff8e9" stroke="#3e7890" stroke-width="4"/>
    <text x="280" y="378" text-anchor="middle">Namib Desert</text>
    <text x="280" y="424" text-anchor="middle">fog belt</text>
    <rect x="770" y="350" width="330" height="112" rx="12" fill="#fff8e9" stroke="#4f7b3f" stroke-width="4"/>
    <text x="935" y="420" text-anchor="middle">Only two leaves</text>
    <rect x="150" y="1078" width="430" height="120" rx="12" fill="#fff8e9" stroke="#b17443" stroke-width="4"/>
    <text x="365" y="1148" text-anchor="middle">Growing from the base</text>
  </g>
  <rect x="150" y="1300" width="900" height="105" rx="14" fill="#f4efd9" stroke="#2b7256" stroke-width="5"/>
  <text x="600" y="1364" text-anchor="middle" font-family="Georgia, serif" font-size="42" fill="#245e43">IUCN Red List: Not Evaluated</text>
</svg>
